<svg xmlns="http://www.w3.org/2000/svg" xmlns:xlink="http://www.w3.org/1999/xlink" width="96" zoomAndPan="magnify" viewBox="0 0 72 54" height="72" preserveAspectRatio="xMidYMid meet" version="1.0"><defs><clipPath id="31f8885087"><path d="M 0.65625 0 L 22.007812 0 L 22.007812 21.355469 L 0.65625 21.355469 Z M 0.65625 0 " clip-rule="nonzero"/></clipPath><clipPath id="5bfba5d6e7"><path d="M 0.660156 0 L 21 0 L 21 21 L 0.660156 21 Z M 0.660156 0 " clip-rule="nonzero"/></clipPath><clipPath id="51873e1575"><rect x="0" width="23" y="0" height="22"/></clipPath><clipPath id="6832ef0a40"><path d="M 0.65625 31.859375 L 22.007812 31.859375 L 22.007812 53.019531 L 0.65625 53.019531 Z M 0.65625 31.859375 " clip-rule="nonzero"/></clipPath><clipPath id="0af5b9fdc7"><path d="M 0.660156 1 L 21 1 L 21 22 L 0.660156 22 Z M 0.660156 1 " clip-rule="nonzero"/></clipPath><clipPath id="c5877084a0"><rect x="0" width="23" y="0" height="23"/></clipPath><clipPath id="e2ee60895d"><path d="M 51 0 L 71.148438 0 L 71.148438 21 L 51 21 Z M 51 0 " clip-rule="nonzero"/></clipPath><clipPath id="762d66a1e4"><path d="M 49.792969 31.859375 L 71.148438 31.859375 L 71.148438 53.019531 L 49.792969 53.019531 Z M 49.792969 31.859375 " clip-rule="nonzero"/></clipPath><clipPath id="4f69ccf05c"><path d="M 2 1 L 22.148438 1 L 22.148438 22 L 2 22 Z M 2 1 " clip-rule="nonzero"/></clipPath><clipPath id="cbc37fbd15"><rect x="0" width="23" y="0" height="23"/></clipPath></defs><g clip-path="url(#31f8885087)"><g transform="matrix(1, 0, 0, 1, 0.000000000000000111, -0.000000000000014165)"><g clip-path="url(#51873e1575)"><g clip-path="url(#5bfba5d6e7)"><path fill="#231f20" d="M 0.660156 20.191406 L 2.464844 20.191406 L 2.464844 1.835938 L 20.796875 1.835938 L 20.796875 0.03125 L 1.5625 0.03125 L 0.660156 0.933594 Z M 0.660156 20.191406 " fill-opacity="1" fill-rule="nonzero"/></g></g></g></g><g clip-path="url(#6832ef0a40)"><g transform="matrix(1, 0, 0, 1, 0.000000000000000111, 31)"><g clip-path="url(#c5877084a0)"><g clip-path="url(#0af5b9fdc7)"><path fill="#231f20" d="M 0.660156 1.8125 L 2.464844 1.8125 L 2.464844 20.171875 L 20.796875 20.171875 L 20.796875 21.976562 L 1.5625 21.976562 L 0.660156 21.074219 Z M 0.660156 1.8125 " fill-opacity="1" fill-rule="nonzero"/></g></g></g></g><g clip-path="url(#e2ee60895d)"><path fill="#231f20" d="M 71.335938 20.191406 L 69.535156 20.191406 L 69.535156 1.835938 L 51.203125 1.835938 L 51.203125 0.03125 L 70.4375 0.03125 L 71.335938 0.933594 Z M 71.335938 20.191406 " fill-opacity="1" fill-rule="nonzero"/></g><g clip-path="url(#762d66a1e4)"><g transform="matrix(1, 0, 0, 1, 49, 31)"><g clip-path="url(#cbc37fbd15)"><g clip-path="url(#4f69ccf05c)"><path fill="#231f20" d="M 22.335938 1.8125 L 20.535156 1.8125 L 20.535156 20.171875 L 2.203125 20.171875 L 2.203125 21.976562 L 21.4375 21.976562 L 22.335938 21.074219 Z M 22.335938 1.8125 " fill-opacity="1" fill-rule="nonzero"/></g></g></g></g></svg>